<?xml version="1.0" encoding="UTF-8"?>
<svg id="Layer_1" xmlns="http://www.w3.org/2000/svg" version="1.1" viewBox="0 0 2079.5 1709">
  <!-- Generator: Adobe Illustrator 29.5.1, SVG Export Plug-In . SVG Version: 2.1.0 Build 141)  -->
  <defs>
    <style>
      .st0 {
        fill: #f4e9c1;
      }

      .st1 {
        stroke: #be932d;
        stroke-width: 4.42px;
      }

      .st1, .st2, .st3, .st4 {
        stroke-miterlimit: 10;
      }

      .st1, .st5 {
        fill: #492814;
      }

      .st2 {
        stroke-width: 3.13px;
      }

      .st2, .st6, .st4 {
        fill: none;
      }

      .st2, .st3, .st4 {
        stroke: #492814;
      }

      .st7 {
        fill: #e1d2ac;
      }

      .st3 {
        fill: #fff;
      }

      .st3, .st4 {
        stroke-width: 8.84px;
      }

      .st8 {
        fill: #be932d;
      }
    </style>
  </defs>
  <polygon class="st6" points="865.98 407.92 865.98 1097.96 916.3 1100.04 916.3 810.86 1001.6 812.94 1001.6 403.11 865.98 407.92"/>
  <g>
    <path class="st8" d="M1339.77,841.26c0,63.84-17.24,123.69-47.3,175.07-60.26,103.09-172.1,172.32-300.13,172.32-11.94,0-23.74-.62-35.32-1.81-10.83-1.06-21.49-2.7-32.01-4.77-18.21-3.54-35.99-8.53-53.05-14.9-13.44-4.91-26.52-10.7-39.12-17.24-46.02-23.78-86.07-57.65-117.2-98.63-44.38-58.31-70.73-131.08-70.73-210.03,0-191.91,155.57-347.43,347.43-347.43s347.43,155.53,347.43,347.43Z"/>
    <polygon class="st3" points="802.4 545.55 802.4 888.88 879.64 888.88 879.64 544.05 802.4 545.55"/>
    <rect class="st5" x="873.27" y="467.08" width="134.71" height="27.57"/>
    <rect class="st4" x="803.57" y="706.06" width="69.43" height="1.56"/>
    <rect class="st4" x="1004.98" y="531.96" width="142.51" height="2.47"/>
    <rect class="st4" x="803.57" y="726.87" width="69.43" height="1.56"/>
    <rect class="st2" x="703.19" y="887.84" width="69.43" height="1.56"/>
    <path class="st5" d="M1007.82,516.05v442.04h-82.71v226.13c-18.21-3.54-35.99-8.53-53.05-14.9v-649.91l135.76-3.36Z"/>
    <path class="st5" d="M835,866.24v270.69c0,4.55-.75,8.93-2.17,13-46.02-23.78-86.07-57.65-117.2-98.63v-185.06c0-21.84,17.73-39.57,39.57-39.57h40.23c21.88,0,39.57,17.73,39.57,39.57Z"/>
    <polygon class="st1" points="1078.96 699.82 1076.88 917.22 1246.44 916.7 1246.44 698.26 1220.95 698.26 1219.39 628.57 1078.96 699.82"/>
    <g>
      <rect class="st0" x="1090.41" y="711.52" width="17.68" height="53.05"/>
      <rect class="st0" x="1121.61" y="711.52" width="17.68" height="53.05"/>
      <rect class="st0" x="1152.82" y="711.52" width="17.68" height="53.05"/>
      <rect class="st0" x="1184.02" y="711.52" width="17.68" height="53.05"/>
      <rect class="st0" x="1215.23" y="711.52" width="17.68" height="53.05"/>
      <rect class="st0" x="1090.41" y="779.92" width="17.68" height="53.05"/>
      <rect class="st0" x="1121.61" y="779.92" width="17.68" height="53.05"/>
      <rect class="st0" x="1152.82" y="779.92" width="17.68" height="53.05"/>
      <rect class="st0" x="1184.02" y="779.92" width="17.68" height="53.05"/>
      <rect class="st0" x="1215.23" y="779.92" width="17.68" height="53.05"/>
    </g>
    <polyline class="st8" points="1292.46 912.04 1208.2 832.46 1125.53 905.76 1041.27 838.7 957.01 904.21 957.01 1063.89"/>
    <path class="st5" d="M1292.46,916.46v99.87c-60.26,103.09-172.1,172.32-300.13,172.32-11.94,0-23.74-.62-35.32-1.81v-278.2l84.26-65.52,84.26,67.06,82.67-73.3,84.26,79.57Z"/>
    <g>
      <rect class="st0" x="972.08" y="925.28" width="19.76" height="54.61"/>
      <rect class="st0" x="972.08" y="995.24" width="37.19" height="41.09"/>
      <rect class="st0" x="1024.61" y="995.24" width="37.19" height="41.09"/>
      <rect class="st0" x="1077.14" y="995.24" width="37.19" height="41.09"/>
      <rect class="st0" x="1129.67" y="995.24" width="37.19" height="41.09"/>
      <rect class="st0" x="1182.2" y="995.24" width="37.19" height="41.09"/>
      <rect class="st0" x="1234.73" y="995.24" width="37.19" height="41.09"/>
      <rect class="st0" x="1006.41" y="925.28" width="19.76" height="54.61"/>
      <rect class="st0" x="1040.74" y="925.28" width="19.76" height="54.61"/>
      <rect class="st0" x="1075.06" y="925.28" width="19.76" height="54.61"/>
      <rect class="st0" x="1146.84" y="925.28" width="19.76" height="54.61"/>
      <rect class="st0" x="1181.68" y="925.28" width="19.76" height="54.61"/>
      <rect class="st0" x="1216.53" y="925.28" width="19.76" height="54.61"/>
      <rect class="st0" x="1251.38" y="925.28" width="19.76" height="54.61"/>
    </g>
    <rect class="st5" x="984.57" y="739.22" width="96.74" height="44.47"/>
    <path class="st5" d="M1130.19,401.29s7.28,195.56-11.44,276.69l86.34-43.69s-3.12-195.56-4.16-231.96l-70.73-1.04Z"/>
    <rect class="st5" x="1118.75" y="412.73" width="93.62" height="7.8"/>
    <g>
      <path class="st5" d="M1380.5,265.81c-8.18,0-15.11,1.93-20.81,5.18-1.3-2.51-2.83-4.87-4.5-7.14,8.38-16.67.45-42-23.92-42-15.33,0-24.1,10.05-26.48,21.64-23.5,2.61-38.3,17.75-44.24,36.23-5.71-3.21-12.58-5.12-20.7-5.12-26.03,0-39.58,19.29-40.73,39.42-3.44-1.58-7.43-2.5-12.04-2.5-25.53,0-33.02,27.79-22.62,44.3-14.78,3.18-13.7,27.79,3.27,27.79,10.08,0,14.53-8.7,13.41-16.42,1.86.36,3.83.59,5.93.59,13.89,0,22.43-8.26,25.68-18.44,6.62,5.89,15.65,9.65,27.09,9.65,16.21,0,27.58-7.55,34.12-18.09,8.99,8.84,21.61,14.56,37.96,14.56,17.51,0,30.74-6.58,39.8-16.52,6.77,6.81,16.33,11.25,28.78,11.25,54.42,0,54.42-84.4,0-84.4Z"/>
      <path class="st7" d="M1339.18,333.15s-22.99,22.4-35.06.81c0,0,9.79,13.84,35.06-.81Z"/>
      <path class="st7" d="M1311.25,254.39s22.24-23.15,35.01-1.97c0,0-10.24-13.51-35.01,1.97Z"/>
      <path class="st7" d="M1220.23,297.04s22.24-23.15,35.01-1.97c0,0-10.24-13.51-35.01,1.97Z"/>
      <path class="st7" d="M1408.87,330.55s-22.99,22.4-35.06.81c0,0,9.79,13.84,35.06-.81Z"/>
    </g>
    <g>
      <path class="st5" d="M801.53,379.15c5.65,0,10.44,1.34,14.39,3.58.9-1.74,1.96-3.37,3.11-4.93-5.79-11.52-.31-29.03,16.53-29.03,10.6,0,16.66,6.95,18.31,14.96,16.25,1.8,26.48,12.27,30.59,25.05,3.94-2.22,8.69-3.54,14.31-3.54,18,0,27.36,13.33,28.16,27.25,2.38-1.09,5.14-1.73,8.32-1.73,17.65,0,22.83,19.21,15.64,30.63,10.22,2.2,9.47,19.21-2.26,19.21-6.97,0-10.05-6.02-9.27-11.35-1.29.25-2.65.41-4.1.41-9.6,0-15.5-5.71-17.75-12.75-4.57,4.07-10.82,6.67-18.73,6.67-11.21,0-19.07-5.22-23.59-12.51-6.22,6.11-14.94,10.07-26.24,10.07-12.11,0-21.25-4.55-27.51-11.42-4.68,4.71-11.29,7.78-19.89,7.78-37.62,0-37.62-58.35,0-58.35Z"/>
      <path class="st7" d="M830.1,425.7s15.89,15.49,24.23.56c0,0-6.77,9.57-24.23-.56Z"/>
      <path class="st7" d="M849.41,371.26s-15.37-16-24.2-1.36c0,0,7.08-9.34,24.2,1.36Z"/>
      <path class="st7" d="M912.33,400.74s-15.37-16-24.2-1.36c0,0,7.08-9.34,24.2,1.36Z"/>
      <path class="st7" d="M781.92,423.9s15.89,15.49,24.23.56c0,0-6.77,9.57-24.23-.56Z"/>
    </g>
    <polygon class="st8" points="954.22 995.69 957.01 995.69 957.01 904.21 955.17 905.73 954.22 995.69"/>
  </g>
  <g>
    <path class="st5" d="M558.39,1289.36c0,4.69-.81,9-2.44,12.93-1.63,3.94-3.87,7.33-6.74,10.17-2.86,2.84-6.26,5.07-10.2,6.68-3.94,1.61-8.21,2.42-12.83,2.42h-37.68c-1,0-1.93-.18-2.79-.54-.86-.36-1.6-.85-2.23-1.48-.63-.63-1.12-1.37-1.48-2.23-.36-.86-.54-1.79-.54-2.79v-62.91c0-.97.18-1.88.54-2.74.36-.86.85-1.61,1.48-2.25.63-.64,1.37-1.14,2.23-1.5.86-.36,1.79-.54,2.79-.54h37.68c4.62,0,8.89.8,12.83,2.42,3.94,1.61,7.33,3.84,10.2,6.68,2.86,2.84,5.11,6.25,6.74,10.2,1.63,3.95,2.44,8.26,2.44,12.91v12.56ZM544.44,1276.8c0-2.72-.44-5.21-1.31-7.46-.88-2.25-2.12-4.18-3.73-5.77-1.61-1.59-3.53-2.83-5.77-3.7-2.24-.88-4.71-1.32-7.43-1.32h-30.76v49.06h30.76c2.72,0,5.2-.44,7.43-1.32,2.24-.88,4.16-2.11,5.77-3.7,1.61-1.59,2.85-3.51,3.73-5.74.88-2.24,1.31-4.73,1.31-7.49v-12.56Z"/>
    <path class="st5" d="M586.14,1276.05h49v-31.45h13.96v76.97h-13.96v-31.45h-49v31.45h-13.96v-76.97h13.96v31.45Z"/>
    <path class="st5" d="M679.48,1321.56h-13.96v-76.97h13.96v76.97Z"/>
    <path class="st5" d="M785.38,1321.56h-14.06v-45.84l-24.74,43.53c-.61,1.11-1.46,1.95-2.55,2.52-1.09.57-2.26.86-3.52.86s-2.35-.29-3.41-.86c-1.06-.57-1.89-1.41-2.5-2.52l-24.85-43.53v45.84h-13.96v-71.01c0-1.61.47-3.04,1.42-4.29.95-1.25,2.19-2.09,3.73-2.52.75-.18,1.5-.24,2.25-.19s1.48.21,2.17.48,1.33.64,1.91,1.13c.57.48,1.05,1.07,1.45,1.74l31.77,55.23,31.78-55.23c.82-1.36,1.96-2.33,3.41-2.9,1.45-.57,2.96-.66,4.54-.27,1.5.43,2.74,1.27,3.7,2.52.97,1.25,1.45,2.68,1.45,4.29v71.01Z"/>
    <path class="st5" d="M877.11,1321.56h-13.96v-18.89h-49.06v18.89h-13.96v-38.48c0-5.62.97-10.79,2.9-15.51,1.93-4.72,4.62-8.78,8.05-12.18,3.44-3.4,7.5-6.05,12.18-7.94,4.69-1.9,9.8-2.84,15.35-2.84h31.45c.97,0,1.88.18,2.74.54.86.36,1.61.86,2.25,1.5.64.64,1.14,1.4,1.5,2.25.36.86.54,1.77.54,2.74v69.94ZM814.1,1288.72h49.06v-30.17h-24.53c-.43,0-1.33.06-2.71.19-1.38.13-2.97.44-4.78.94-1.81.5-3.71,1.27-5.72,2.31-2,1.04-3.85,2.47-5.53,4.29-1.68,1.82-3.07,4.11-4.16,6.84-1.09,2.74-1.64,6.06-1.64,9.96v5.64Z"/>
    <path class="st5" d="M970.24,1315.61c0,1-.19,1.93-.56,2.79-.38.86-.88,1.6-1.5,2.23-.63.63-1.37,1.12-2.23,1.48-.86.36-1.77.54-2.74.54-.86,0-1.73-.16-2.6-.48-.88-.32-1.66-.84-2.33-1.56l-50.99-53.25v54.21h-13.96v-71.01c0-1.43.4-2.73,1.21-3.89.81-1.16,1.83-2.03,3.09-2.6,1.32-.54,2.68-.67,4.08-.4s2.59.92,3.6,1.96l50.99,53.19v-54.21h13.96v71.01Z"/>
    <path class="st5" d="M1120.47,1244.6l-12.88,72.14c-.29,1.43-.93,2.67-1.93,3.7-1,1.04-2.22,1.7-3.65,1.99-1.47.25-2.85.09-4.16-.48-1.31-.57-2.33-1.47-3.09-2.68l-25.55-41.97-25.6,41.97c-.61,1.04-1.44,1.84-2.49,2.42-1.06.57-2.19.86-3.41.86-1.68,0-3.17-.54-4.46-1.61-1.29-1.07-2.08-2.47-2.36-4.19l-12.99-72.14h14.17l9.23,50.83,22.01-35.1c.61-1.04,1.44-1.84,2.5-2.42,1.05-.57,2.19-.86,3.41-.86s2.34.29,3.38.86,1.9,1.38,2.58,2.42l21.9,35.1,9.23-50.83h14.17Z"/>
    <path class="st5" d="M1201.95,1321.56h-50.35c-1.93,0-4.04-.34-6.33-1.02s-4.41-1.8-6.36-3.35c-1.95-1.56-3.58-3.58-4.88-6.07-1.31-2.49-1.96-5.54-1.96-9.15v-50.35c0-.97.18-1.88.54-2.74.36-.86.85-1.61,1.48-2.25.62-.64,1.37-1.14,2.23-1.5.86-.36,1.79-.54,2.79-.54h62.85v13.96h-55.93v43.42c0,1.82.48,3.22,1.45,4.19s2.38,1.45,4.24,1.45h50.24v13.96ZM1195.67,1290.11h-44.07v-14.06h44.07v14.06Z"/>
    <path class="st5" d="M1286.11,1321.56h-63.66c-1,0-1.93-.18-2.79-.54-.86-.36-1.6-.85-2.23-1.48s-1.12-1.37-1.48-2.23c-.36-.86-.54-1.79-.54-2.79v-69.94h13.96v63.01h56.73v13.96Z"/>
    <path class="st5" d="M1373.17,1289.36c0,4.69-.81,9-2.44,12.93-1.63,3.94-3.87,7.33-6.74,10.17-2.86,2.84-6.26,5.07-10.2,6.68-3.94,1.61-8.21,2.42-12.83,2.42h-37.68c-1,0-1.93-.18-2.79-.54-.86-.36-1.6-.85-2.23-1.48s-1.12-1.37-1.48-2.23c-.36-.86-.54-1.79-.54-2.79v-62.91c0-.97.18-1.88.54-2.74.36-.86.85-1.61,1.48-2.25.63-.64,1.37-1.14,2.23-1.5.86-.36,1.79-.54,2.79-.54h37.68c4.62,0,8.89.8,12.83,2.42,3.94,1.61,7.33,3.84,10.2,6.68,2.86,2.84,5.11,6.25,6.74,10.2,1.63,3.95,2.44,8.26,2.44,12.91v12.56ZM1359.21,1276.8c0-2.72-.44-5.21-1.31-7.46-.88-2.25-2.12-4.18-3.73-5.77-1.61-1.59-3.53-2.83-5.77-3.7s-4.71-1.32-7.43-1.32h-30.75v49.06h30.75c2.72,0,5.2-.44,7.43-1.32,2.24-.88,4.16-2.11,5.77-3.7,1.61-1.59,2.85-3.51,3.73-5.74.88-2.24,1.31-4.73,1.31-7.49v-12.56Z"/>
    <path class="st5" d="M1400.92,1321.56h-13.96v-76.97h13.96v76.97Z"/>
    <path class="st5" d="M1494.15,1315.61c0,1-.19,1.93-.56,2.79-.38.86-.88,1.6-1.5,2.23-.63.63-1.37,1.12-2.23,1.48-.86.36-1.77.54-2.74.54-.86,0-1.73-.16-2.6-.48-.88-.32-1.66-.84-2.33-1.56l-50.99-53.25v54.21h-13.96v-71.01c0-1.43.4-2.73,1.21-3.89.8-1.16,1.83-2.03,3.09-2.6,1.32-.54,2.68-.67,4.08-.4s2.59.92,3.6,1.96l50.99,53.19v-54.21h13.96v71.01Z"/>
    <path class="st5" d="M1586.31,1314.53c0,1-.18,1.93-.54,2.79-.36.86-.85,1.6-1.48,2.23s-1.37,1.12-2.23,1.48c-.86.36-1.79.54-2.79.54h-50.35c-1.29,0-2.67-.15-4.16-.46-1.49-.3-2.95-.78-4.4-1.42-1.45-.64-2.84-1.48-4.16-2.5-1.32-1.02-2.5-2.25-3.52-3.7s-1.83-3.13-2.44-5.04-.91-4.07-.91-6.47v-37.79c0-1.29.15-2.67.46-4.16.3-1.48.78-2.95,1.42-4.4.64-1.45,1.48-2.84,2.52-4.16,1.04-1.32,2.28-2.5,3.73-3.52s3.12-1.83,5.02-2.44c1.9-.61,4.04-.91,6.44-.91h56.73v13.96h-56.73c-1.82,0-3.22.48-4.19,1.45-.97.97-1.45,2.4-1.45,4.29v37.68c0,1.79.49,3.18,1.48,4.16.98.99,2.37,1.48,4.16,1.48h43.42v-17.5h-37.14v-14.06h44.07c1,0,1.93.19,2.79.56.86.38,1.6.89,2.23,1.53.63.64,1.12,1.39,1.48,2.23.36.84.54,1.75.54,2.71v31.45Z"/>
  </g>
  <g>
    <path class="st8" d="M867.31,1442.63l-16.09-63.42h8.66l7.53,32.09c1.88,7.91,3.58,15.81,4.71,21.93h.19c1.04-6.3,3.01-13.83,5.18-22.02l8.47-31.99h8.56l7.72,32.18c1.79,7.53,3.48,15.06,4.42,21.74h.19c1.32-6.96,3.1-14.02,5.08-21.93l8.38-31.99h8.38l-17.97,63.42h-8.56l-8-33.03c-1.98-8.09-3.29-14.3-4.14-20.7h-.19c-1.13,6.3-2.54,12.52-4.89,20.7l-9.03,33.03h-8.56Z"/>
    <path class="st8" d="M1009.3,1410.26c0,21.83-13.27,33.41-29.45,33.41s-28.51-12.99-28.51-32.18c0-20.14,12.52-33.31,29.45-33.31s28.51,13.27,28.51,32.09ZM960.09,1411.29c0,13.55,7.34,25.69,20.23,25.69s20.33-11.95,20.33-26.35c0-12.61-6.59-25.78-20.23-25.78s-20.33,12.52-20.33,26.44Z"/>
    <path class="st8" d="M1038.47,1380.05c4.14-.85,10.07-1.32,15.71-1.32,8.75,0,14.4,1.6,18.35,5.18,3.2,2.82,4.99,7.15,4.99,12.04,0,8.38-5.27,13.93-11.95,16.19v.28c4.89,1.69,7.81,6.21,9.32,12.8,2.07,8.84,3.58,14.96,4.89,17.41h-8.47c-1.04-1.79-2.45-7.25-4.23-15.15-1.88-8.75-5.27-12.04-12.7-12.33h-7.72v27.48h-8.19v-62.58ZM1046.66,1408.94h8.38c8.75,0,14.3-4.8,14.3-12.04,0-8.19-5.93-11.76-14.59-11.86-3.95,0-6.77.38-8.09.75v23.15Z"/>
    <path class="st8" d="M1107.63,1379.2h8.19v30.58h.28c1.69-2.45,3.39-4.71,4.99-6.78l19.38-23.81h10.16l-22.96,26.91,24.75,36.51h-9.69l-20.89-31.15-6.02,6.96v24.18h-8.19v-63.42Z"/>
    <path class="st8" d="M1176.04,1432.65c3.67,2.26,9.03,4.14,14.68,4.14,8.38,0,13.27-4.42,13.27-10.82,0-5.93-3.39-9.32-11.95-12.61-10.35-3.67-16.75-9.03-16.75-17.97,0-9.88,8.19-17.22,20.51-17.22,6.49,0,11.2,1.51,14.02,3.11l-2.26,6.68c-2.07-1.13-6.3-3.01-12.04-3.01-8.66,0-11.95,5.17-11.95,9.5,0,5.93,3.86,8.85,12.61,12.23,10.73,4.14,16.19,9.32,16.19,18.63,0,9.79-7.25,18.26-22.21,18.26-6.12,0-12.8-1.79-16.19-4.05l2.07-6.87Z"/>
  </g>
</svg>